<svg width="25" height="24" viewBox="0 0 25 24" fill="none" xmlns="http://www.w3.org/2000/svg">
<path d="M20.531 9.53063L13.031 17.0306C12.9614 17.1004 12.8787 17.1557 12.7876 17.1934C12.6966 17.2312 12.599 17.2506 12.5004 17.2506C12.4019 17.2506 12.3043 17.2312 12.2132 17.1934C12.1222 17.1557 12.0394 17.1004 11.9698 17.0306L4.46979 9.53063C4.32906 9.3899 4.25 9.19902 4.25 9C4.25 8.80098 4.32906 8.61011 4.46979 8.46938C4.61052 8.32865 4.80139 8.24958 5.00042 8.24958C5.19944 8.24958 5.39031 8.32865 5.53104 8.46938L12.5004 15.4397L19.4698 8.46938C19.5395 8.39969 19.6222 8.34442 19.7132 8.30671C19.8043 8.26899 19.9019 8.24958 20.0004 8.24958C20.099 8.24958 20.1965 8.26899 20.2876 8.30671C20.3786 8.34442 20.4614 8.39969 20.531 8.46938C20.6007 8.53906 20.656 8.62178 20.6937 8.71283C20.7314 8.80387 20.7508 8.90146 20.7508 9C20.7508 9.09855 20.7314 9.19613 20.6937 9.28717C20.656 9.37822 20.6007 9.46094 20.531 9.53063Z" fill="white"/>
</svg>
