<svg width="20" height="20" viewBox="0 0 20 20" fill="none" xmlns="http://www.w3.org/2000/svg">
<g clip-path="url(#clip0_378_4116)">
<path d="M16.5378 14.9167C16.5378 14.7583 16.5378 14.625 16.5378 14.5C16.5378 11.0833 16.5378 7.66528 16.5378 4.24583C16.5146 4.04771 16.551 3.84719 16.6423 3.66983C16.7336 3.49247 16.8756 3.34632 17.0503 3.25C17.1917 3.17467 17.3496 3.13582 17.5098 3.13699C17.67 3.13816 17.8274 3.1793 17.9677 3.25668C18.108 3.33407 18.2268 3.44525 18.3132 3.58014C18.3997 3.71504 18.4511 3.86938 18.4628 4.02917C18.4628 4.12083 18.4628 4.20833 18.4628 4.29583V15.7042C18.4628 16.5042 18.0961 16.875 17.2919 16.875C15.3878 16.875 13.4794 16.875 11.5711 16.875C10.3373 16.8914 9.13699 16.4735 8.18027 15.6942C7.22354 14.915 6.57133 13.8241 6.33775 12.6125C6.27341 12.3111 6.2399 12.004 6.23776 11.6958C6.23776 10.0292 6.23776 8.3875 6.23776 6.73333C6.22631 6.52237 6.28399 6.31343 6.40205 6.13823C6.52011 5.96302 6.6921 5.8311 6.89192 5.7625C7.07744 5.68742 7.28302 5.67787 7.47469 5.73545C7.66637 5.79303 7.83266 5.91428 7.94609 6.07917C8.07909 6.30396 8.15092 6.55966 8.15442 6.82083C8.17526 8.375 8.15442 9.92917 8.15442 11.4833C8.13092 12.2212 8.35302 12.9459 8.78587 13.5439C9.21872 14.1419 9.83783 14.5793 10.5461 14.7875C10.874 14.8818 11.2132 14.9308 11.5544 14.9333C13.1336 14.9333 14.7086 14.9333 16.2836 14.9333C16.3586 14.9375 16.4211 14.925 16.5378 14.9167Z" fill="white"/>
<path d="M3.45794 5.09167C3.45794 5.24167 3.45794 5.37083 3.45794 5.50833C3.45794 8.93056 3.45794 12.3486 3.45794 15.7625C3.48723 16.0172 3.41413 16.2731 3.25472 16.474C3.09531 16.6748 2.86266 16.8041 2.60794 16.8333C2.35322 16.8626 2.09731 16.7895 1.89649 16.6301C1.69567 16.4707 1.56639 16.2381 1.53711 15.9833C1.53711 15.8958 1.53711 15.8083 1.53711 15.7208V4.3C1.53711 3.49583 1.90794 3.125 2.70378 3.125C4.60794 3.125 6.51628 3.125 8.42461 3.125C9.65832 3.10821 10.8587 3.52545 11.816 4.30381C12.7734 5.08216 13.4268 6.17215 13.6621 7.38333C13.7265 7.6847 13.76 7.99184 13.7621 8.3C13.7621 9.96667 13.7621 11.6208 13.7621 13.2625C13.7726 13.4328 13.7375 13.6027 13.6604 13.7549C13.5832 13.907 13.4669 14.0358 13.3233 14.128C13.1798 14.2201 13.0143 14.2723 12.8438 14.2791C12.6734 14.2859 12.5042 14.2471 12.3538 14.1667C12.1821 14.0764 12.0413 13.937 11.9492 13.7663C11.8572 13.5956 11.8182 13.4013 11.8371 13.2083C11.8371 11.6472 11.8371 10.0819 11.8371 8.5125C11.8639 7.72913 11.6137 6.96139 11.1306 6.34416C10.6475 5.72693 9.9623 5.29969 9.19544 5.1375C8.93667 5.08211 8.67256 5.05556 8.40794 5.05833C6.85378 5.05833 5.29961 5.05833 3.74544 5.05833C3.65794 5.0625 3.57461 5.07917 3.45794 5.09167Z" fill="white"/>
</g>
<defs>
<clipPath id="clip0_378_4116">
<rect width="20" height="20" fill="white"/>
</clipPath>
</defs>
</svg>
